<svg width="39" height="45" viewBox="0 0 39 45" fill="none" xmlns="http://www.w3.org/2000/svg">
<path d="M16.8439 33.6707C14.6649 33.6707 12.8922 35.422 12.8922 37.5753C12.8922 39.7285 14.6649 41.4802 16.8439 41.4802C19.0228 41.4802 20.7948 39.7282 20.7948 37.5753C20.7952 35.422 19.0228 33.6707 16.8439 33.6707ZM16.8439 40.5037C15.2033 40.5037 13.8686 39.19 13.8686 37.5752C13.8686 35.9611 15.2033 34.647 16.8439 34.647C18.4837 34.647 19.8184 35.9607 19.8184 37.5752C19.8187 39.19 18.484 40.5037 16.8439 40.5037Z" fill="currentColor"/>
<path d="M0.488217 28.6076C0.218817 28.6076 0 28.8264 0 29.0958V37.5756C0 37.845 0.218817 38.0639 0.488217 38.0639H9.35002C9.60639 41.9301 12.8644 45 16.8438 45C20.8223 45 24.0804 41.9301 24.3368 38.0639H38.2889C38.5583 38.0639 38.7771 37.845 38.7771 37.5756V34.1386C38.7771 33.8692 38.5583 33.6504 38.2889 33.6504H33.6869V29.0963C33.6869 28.8269 33.4681 28.6081 33.1987 28.6081H30.1824V25.5918H32.3017C32.5711 25.5918 32.7899 25.373 32.7899 25.1036L32.7895 21.6662C32.7895 21.3964 32.5707 21.1779 32.3013 21.1779H30.1821V12.0234C31.5781 11.3248 32.5392 9.89614 32.5392 8.24723V5.88051C32.5392 5.87667 32.5369 5.87323 32.5369 5.86939C32.5357 5.81229 32.5242 5.75673 32.5031 5.70308C32.4982 5.69082 32.4913 5.68009 32.4855 5.66821C32.4748 5.64636 32.4667 5.62337 32.4526 5.60268C32.1422 5.15356 31.826 4.70902 31.5102 4.26485C31.1903 3.81381 30.8695 3.36315 30.5518 2.9025L30.1173 2.28936C29.631 1.60264 29.1374 0.906703 28.656 0.210764C28.5648 0.0785507 28.4146 0 28.2544 0H5.4328C5.27262 0 5.10209 0.10807 5.01088 0.23989C4.40387 1.11783 3.77616 2.02604 3.1331 2.9071C2.82078 3.35968 2.50233 3.80651 2.18464 4.25405C1.86619 4.70203 1.54812 5.15 1.23427 5.60296C1.2201 5.62366 1.21205 5.64665 1.20132 5.66849C1.19557 5.68037 1.18867 5.69072 1.18369 5.70298C1.16261 5.75663 1.15112 5.81258 1.14997 5.86968C1.14997 5.87351 1.14767 5.87658 1.14767 5.88079V8.24752C1.14767 9.89682 2.10915 11.3255 3.50517 12.0241V21.1786H1.38527C1.11587 21.1786 0.897056 21.3971 0.897056 21.6668V25.1039C0.897056 25.3733 1.11587 25.5921 1.38527 25.5921H3.48418L3.48456 28.6076L0.488217 28.6076ZM0.976435 29.584H3.48413V37.0873H0.976435V29.584ZM16.8435 44.0238C13.236 44.0238 10.3013 41.1309 10.3013 37.5758C10.3013 34.0207 13.2359 31.1282 16.8435 31.1282C20.4508 31.1282 23.3854 34.0206 23.3854 37.5758C23.3854 41.1308 20.4508 44.0238 16.8435 44.0238ZM32.7107 29.584V34.1382C32.7107 34.4076 32.9295 34.6264 33.1989 34.6264H37.8009V37.087L30.1822 37.0874V29.5841L32.7107 29.584ZM29.2058 12.3729V21.1776H27.2821L27.2824 12.3721C27.2985 12.3756 27.315 12.3767 27.3311 12.3802C27.4392 12.4036 27.5495 12.4204 27.6607 12.4358C27.699 12.4411 27.7366 12.4488 27.7753 12.453C27.9328 12.4702 28.0926 12.481 28.2547 12.481C28.5781 12.481 28.8923 12.4423 29.1954 12.3748C29.1989 12.3741 29.2027 12.3737 29.2058 12.3729L29.2058 12.3729ZM7.38087 21.1776V12.0131C8.17105 11.6122 8.81866 10.9776 9.2299 10.2002C9.94919 11.5537 11.3886 12.481 13.0463 12.481C14.6953 12.481 16.1269 11.5548 16.8435 10.2024C17.5598 11.5548 18.9915 12.481 20.64 12.481C22.2897 12.481 23.7222 11.5537 24.4377 10.2002C24.8523 10.9808 25.5072 11.6169 26.3054 12.0177V21.178L7.38087 21.1776ZM17.3314 0.975367H22.1909C22.3465 1.41912 22.5055 1.86213 22.6638 2.3024L23.7479 5.39146L17.3314 5.39107L17.3314 0.975367ZM17.3314 6.36758H23.9483V8.24605C23.9483 10.0425 22.4641 11.5037 20.64 11.5037C18.8159 11.5037 17.3317 10.0425 17.3317 8.24605L17.3314 6.36758ZM16.355 8.24605C16.355 10.0425 14.8708 11.5037 13.046 11.5037C11.2104 11.5037 9.71658 10.0425 9.71658 8.24605V6.36758H16.355V8.24605ZM31.5629 8.24605C31.5629 9.59496 30.7259 10.7549 29.5364 11.2489C29.5257 11.2523 29.5142 11.2496 29.5039 11.2538C28.7194 11.5857 27.7449 11.575 26.9842 11.2538C26.9811 11.2523 26.9773 11.2535 26.9742 11.2523C25.7725 10.7603 24.9256 9.5984 24.9256 8.24596V6.36749H31.5632L31.5629 8.24605ZM29.321 2.85305L29.7514 3.46083C30.0687 3.92068 30.3917 4.37479 30.7148 4.82965C30.8477 5.01665 30.9807 5.20405 31.1129 5.39145L24.7837 5.39106L23.5831 1.9717C23.4644 1.64137 23.3475 1.30797 23.2294 0.975366H27.9985C28.4357 1.60422 28.881 2.23226 29.3209 2.85315L29.321 2.85305ZM16.3558 5.39106H9.9274C10.175 4.70818 10.4126 4.03215 10.6494 3.34582L10.8927 2.65565C11.0882 2.09999 11.289 1.53748 11.4932 0.97525H16.3558V5.39106ZM2.98047 4.81816C3.30121 4.3675 3.62119 3.91646 3.92892 3.47122C4.52329 2.65842 5.10694 1.8177 5.68937 0.974994H10.4516C10.2887 1.42948 10.1289 1.88244 9.97179 2.33156L9.72806 3.02364C9.45329 3.81881 9.17394 4.59976 8.88499 5.39115H2.57424C2.70913 5.19993 2.84517 5.00909 2.98044 4.81825L2.98047 4.81816ZM2.12436 8.24597V6.3675H8.74129V8.24597C8.74129 9.5987 7.89899 10.761 6.70409 11.2526C5.87098 11.5872 4.96012 11.5826 4.18442 11.2538C4.17331 11.2492 4.16104 11.2522 4.14955 11.2484C2.96084 10.7544 2.12422 9.59488 2.12422 8.24597L2.12436 8.24597ZM4.48187 12.3724C4.48493 12.3731 4.48761 12.3731 4.49068 12.3739C4.63975 12.4072 4.79074 12.4333 4.94517 12.4509C4.9513 12.4517 4.95743 12.4532 4.96356 12.4536C5.11761 12.4705 5.27397 12.4804 5.43261 12.4804C5.43683 12.4804 5.44066 12.4797 5.44488 12.4797C5.44909 12.4797 5.45331 12.4789 5.45752 12.4789C5.60851 12.4781 5.75796 12.4689 5.90473 12.4532C5.95072 12.4482 5.99594 12.439 6.04192 12.4325C6.14883 12.4176 6.2546 12.4007 6.35884 12.3781C6.37417 12.3747 6.38988 12.3735 6.40521 12.3701V21.1774H4.4822L4.48187 12.3724ZM1.8741 22.1535H31.814V24.6141H1.8741V22.1535ZM29.2065 25.5905V26.7213H23.7847V27.6978H29.2065V29.026H25.52V30.0024H29.2065V31.3306H26.9459V32.307H29.2065V37.0865H24.3466C24.3435 37.0394 24.3343 36.9941 24.3305 36.947C24.3205 36.8317 24.3059 36.7178 24.2906 36.6036C24.2734 36.4753 24.255 36.3477 24.2312 36.2216C24.2101 36.1089 24.1852 35.9978 24.1588 35.887C24.1297 35.7633 24.0982 35.6406 24.063 35.5195C24.0312 35.4107 23.9963 35.3034 23.9595 35.1969C23.9185 35.0781 23.8756 34.9608 23.8288 34.8447C23.7871 34.7405 23.743 34.6378 23.6962 34.5362C23.6441 34.4224 23.5893 34.3105 23.5318 34.1997C23.4805 34.1013 23.428 34.0039 23.3728 33.9081C23.3104 33.8 23.2444 33.6943 23.1766 33.5893C23.1168 33.4969 23.0563 33.4053 22.9923 33.3157C22.9199 33.2137 22.8436 33.1152 22.7662 33.0171C22.6984 32.9313 22.6301 32.8458 22.5589 32.7631C22.4765 32.668 22.3902 32.5765 22.3033 32.4856C22.2282 32.4075 22.1538 32.3289 22.0756 32.2538C21.984 32.1656 21.8882 32.0825 21.7921 31.9989C21.7108 31.9284 21.6303 31.8575 21.546 31.7905C21.4453 31.7104 21.3406 31.636 21.2356 31.5613C21.1486 31.4992 21.0632 31.436 20.9735 31.3774C20.8639 31.3061 20.7505 31.241 20.637 31.1754C20.5458 31.1225 20.4562 31.0673 20.3623 31.0183C20.2443 30.9562 20.1216 30.9014 19.9998 30.8455C19.9047 30.8018 19.812 30.7554 19.7147 30.7159C19.5874 30.6638 19.4556 30.6201 19.3249 30.5749C19.2284 30.5416 19.1341 30.5044 19.036 30.4745C18.8961 30.4324 18.7524 30.4002 18.6095 30.3661C18.5156 30.3438 18.424 30.3166 18.3289 30.2979C18.1672 30.2657 18.0021 30.245 17.8369 30.2235C17.7564 30.2128 17.6783 30.1967 17.597 30.1886C17.3491 30.1641 17.0981 30.1511 16.844 30.1511C16.5899 30.1511 16.3389 30.1645 16.091 30.1886C16.0086 30.1967 15.9293 30.2132 15.848 30.2239C15.684 30.2454 15.52 30.2657 15.3598 30.2979C15.2632 30.317 15.1701 30.3446 15.0747 30.3676C14.9333 30.4013 14.7911 30.4331 14.6528 30.4749C14.5528 30.5052 14.4566 30.5427 14.3585 30.5769C14.2293 30.6217 14.0998 30.6646 13.9741 30.716C13.8752 30.7566 13.7798 30.8037 13.6832 30.8486C13.5637 30.9037 13.4434 30.957 13.3272 31.0183C13.2314 31.0685 13.1395 31.1249 13.046 31.1793C12.9348 31.2436 12.8237 31.3073 12.7164 31.3774C12.6244 31.4372 12.5367 31.5019 12.4478 31.5659C12.3451 31.6391 12.2428 31.7119 12.1443 31.7905C12.058 31.8591 11.9756 31.9315 11.8925 32.0036C11.7982 32.0852 11.7043 32.1672 11.6143 32.2534C11.5346 32.3301 11.4587 32.4098 11.382 32.4899C11.2962 32.5795 11.2115 32.6696 11.1303 32.7631C11.0575 32.847 10.9885 32.9336 10.9199 33.0206C10.8433 33.1176 10.7681 33.2149 10.6965 33.3153C10.6317 33.4061 10.5704 33.4989 10.5095 33.5928C10.4424 33.6962 10.3777 33.8005 10.3156 33.9074C10.2592 34.0043 10.206 34.1032 10.1542 34.2028C10.0971 34.3124 10.0431 34.4232 9.99137 34.5362C9.94462 34.6385 9.90017 34.7416 9.8584 34.8462C9.81164 34.962 9.76872 35.0792 9.72772 35.1976C9.69094 35.3046 9.65606 35.4119 9.62426 35.5211C9.58862 35.6422 9.55758 35.7648 9.52845 35.8882C9.50201 35.999 9.4771 36.1101 9.45602 36.2228C9.43226 36.3488 9.41387 36.4764 9.39663 36.6048C9.3813 36.7186 9.36674 36.8324 9.35677 36.9482C9.35294 36.9949 9.34374 37.0405 9.34068 37.0877H4.46047V32.3082H10.0125V31.3318H4.46047V30.0036H8.27725V29.0271H4.46047V27.6989H6.85133V26.7225H4.46047V25.5917L29.2065 25.5905Z" fill="currentColor"/>
</svg>
