<svg width="48" height="48" fill="none" viewBox="0 0 48 48" xmlns="http://www.w3.org/2000/svg">
<path d="M21.0953 35.1742C19.0131 35.1742 17.3192 36.8477 17.3192 38.9053C17.3192 40.9628 19.0131 42.6367 21.0953 42.6367C23.1774 42.6367 24.8705 40.9625 24.8705 38.9053C24.8709 36.8477 23.1774 35.1742 21.0953 35.1742ZM21.0953 41.7036C19.5276 41.7036 18.2522 40.4483 18.2522 38.9052C18.2522 37.3628 19.5276 36.1072 21.0953 36.1072C22.6622 36.1072 23.9375 37.3625 23.9375 38.9052C23.9379 40.4483 22.6624 41.7036 21.0953 41.7036Z" fill="currentColor"/>
<path d="M5.46652 30.3362C5.20909 30.3362 5 30.5453 5 30.8027V38.9056C5 39.163 5.20909 39.3721 5.46652 39.3721H13.9345C14.1794 43.0665 17.2927 46 21.0952 46C24.8969 46 28.0102 43.0665 28.2551 39.3721H41.5872C41.8446 39.3721 42.0537 39.163 42.0537 38.9056V35.6213C42.0537 35.3639 41.8446 35.1548 41.5872 35.1548H37.1897V30.8031C37.1897 30.5457 36.9806 30.3366 36.7232 30.3366H33.841V27.4544H35.866C36.1235 27.4544 36.3325 27.2453 36.3325 26.9879L36.3322 23.7032C36.3322 23.4454 36.1231 23.2367 35.8657 23.2367H33.8406V14.489C35.1746 13.8215 36.093 12.4563 36.093 10.8807V8.61915C36.093 8.61549 36.0908 8.61219 36.0908 8.60853C36.0897 8.55397 36.0787 8.50088 36.0586 8.44961C36.0538 8.43789 36.0472 8.42764 36.0417 8.41629C36.0315 8.39542 36.0238 8.37345 36.0102 8.35367C35.7136 7.92451 35.4115 7.49973 35.1098 7.0753C34.804 6.6443 34.4975 6.21368 34.194 5.7735L33.7787 5.18761C33.314 4.53141 32.8424 3.86641 32.3824 3.2014C32.2953 3.07506 32.1517 3 31.9987 3H10.1913C10.0383 3 9.87533 3.10327 9.78818 3.22923C9.20814 4.06815 8.60833 4.936 7.99385 5.7779C7.69541 6.21036 7.39111 6.63733 7.08755 7.06498C6.78325 7.49305 6.47932 7.92111 6.17942 8.35394C6.16587 8.37372 6.15818 8.39569 6.14793 8.41656C6.14243 8.42791 6.13584 8.4378 6.13108 8.44952C6.11094 8.50078 6.09996 8.55424 6.09886 8.6088C6.09886 8.61246 6.09666 8.61539 6.09666 8.61942V10.881C6.09666 12.457 7.01541 13.8221 8.34939 14.4897V23.2373H6.3237C6.06628 23.2373 5.85719 23.4461 5.85719 23.7039V26.9881C5.85719 27.2456 6.06628 27.4547 6.3237 27.4547H8.32933L8.32969 30.3361L5.46652 30.3362ZM5.93304 31.2692H8.32928V38.439H5.93304V31.2692ZM21.0949 45.0672C17.6478 45.0672 14.8434 42.3029 14.8434 38.9057C14.8434 35.5087 17.6477 32.7447 21.0949 32.7447C24.5419 32.7447 27.3461 35.5086 27.3461 38.9057C27.3461 42.3028 24.5419 45.0672 21.0949 45.0672ZM36.2569 31.2692V35.6209C36.2569 35.8783 36.466 36.0874 36.7234 36.0874H41.1208V38.4387L33.8408 38.439V31.2693L36.2569 31.2692ZM32.9077 14.823V23.2364H31.0695L31.0699 14.8223C31.0853 14.8256 31.101 14.8267 31.1164 14.83C31.2197 14.8523 31.3251 14.8684 31.4313 14.8831C31.4679 14.8882 31.5038 14.8955 31.5408 14.8995C31.6913 14.916 31.844 14.9263 31.9989 14.9263C32.308 14.9263 32.6082 14.8893 32.8979 14.8248C32.9012 14.8241 32.9048 14.8237 32.9078 14.823L32.9077 14.823ZM12.0528 23.2364V14.4792C12.8079 14.0962 13.4267 13.4897 13.8197 12.7468C14.507 14.0402 15.8824 14.9263 17.4665 14.9263C19.0422 14.9263 20.4102 14.0413 21.0949 12.749C21.7793 14.0412 23.1474 14.9263 24.7227 14.9263C26.2991 14.9263 27.6679 14.0402 28.3516 12.7468C28.7478 13.4927 29.3735 14.1005 30.1363 14.4836V23.2368L12.0528 23.2364ZM21.5611 3.93202H26.2047C26.3533 4.35605 26.5053 4.77937 26.6565 5.20007L27.6925 8.15184L21.5612 8.15147L21.5611 3.93202ZM21.5611 9.08457H27.884V10.8796C27.884 12.5962 26.4657 13.9925 24.7227 13.9925C22.9796 13.9925 21.5614 12.5962 21.5614 10.8796L21.5611 9.08457ZM20.6281 10.8796C20.6281 12.5962 19.2099 13.9925 17.4662 13.9925C15.7122 13.9925 14.2847 12.5962 14.2847 10.8796V9.08457H20.6281V10.8796ZM35.1601 10.8796C35.1601 12.1685 34.3603 13.2769 33.2237 13.7489C33.2135 13.7522 33.2025 13.7497 33.1926 13.7537C32.443 14.0708 31.5118 14.0605 30.7849 13.7537C30.782 13.7522 30.7783 13.7533 30.7754 13.7522C29.627 13.282 28.8178 12.1718 28.8178 10.8795V9.0845H35.1604L35.1601 10.8796ZM33.0179 5.72625L33.4291 6.30701C33.7323 6.74643 34.041 7.18035 34.3497 7.615C34.4767 7.79369 34.6038 7.97276 34.7301 8.15183L28.6822 8.15146L27.535 4.88407C27.4215 4.56842 27.3098 4.24984 27.197 3.93202H31.7541C32.1719 4.53293 32.5974 5.13305 33.0178 5.72634L33.0179 5.72625ZM20.6289 8.15146H14.4862C14.7227 7.49893 14.9498 6.85294 15.1761 6.19712L15.4086 5.53762C15.5954 5.00665 15.7872 4.46914 15.9824 3.93191H20.6289V8.15146ZM7.848 7.60402C8.15449 7.17339 8.46025 6.7424 8.7543 6.31694C9.32225 5.54026 9.87996 4.73691 10.4365 3.93166H14.9871C14.8314 4.36595 14.6787 4.79878 14.5286 5.22793L14.2957 5.88926C14.0331 6.64909 13.7662 7.39532 13.4901 8.15155H7.45983C7.58873 7.96882 7.71872 7.78647 7.84798 7.60411L7.848 7.60402ZM7.02995 10.8795V9.0845H13.3528V10.8795C13.3528 12.1721 12.5479 13.2828 11.4061 13.7525C10.61 14.0722 9.73967 14.0678 8.99845 13.7536C8.98783 13.7492 8.97611 13.7521 8.96512 13.7485C7.82924 13.2765 7.02981 12.1684 7.02981 10.8795L7.02995 10.8795ZM9.28267 14.8225C9.2856 14.8232 9.28817 14.8232 9.29109 14.8239C9.43354 14.8558 9.57782 14.8807 9.72538 14.8975C9.73124 14.8983 9.7371 14.8997 9.74296 14.9001C9.89017 14.9162 10.0396 14.9257 10.1912 14.9257C10.1952 14.9257 10.1989 14.925 10.2029 14.925C10.2069 14.925 10.2109 14.9243 10.215 14.9243C10.3592 14.9235 10.5021 14.9148 10.6423 14.8997C10.6862 14.895 10.7295 14.8862 10.7734 14.88C10.8755 14.8657 10.9766 14.8496 11.0762 14.828C11.0909 14.8247 11.1059 14.8236 11.1205 14.8203V23.2362H9.28299L9.28267 14.8225ZM6.79081 24.1689H35.4001V26.5201H6.79081V24.1689ZM32.9084 27.4532V28.5337H27.7276V29.4668H32.9084V30.7359H29.3857V31.669H32.9084V32.9381H30.7483V33.8712H32.9084V38.4382H28.2645C28.2616 38.3932 28.2528 38.35 28.2491 38.3049C28.2396 38.1947 28.2257 38.0859 28.211 37.9768C28.1946 37.8541 28.177 37.7322 28.1543 37.6117C28.1341 37.5041 28.1103 37.3979 28.0851 37.2921C28.0572 37.1738 28.0272 37.0566 27.9935 36.9409C27.9631 36.8369 27.9298 36.7344 27.8947 36.6326C27.8555 36.519 27.8145 36.407 27.7698 36.296C27.7299 36.1964 27.6878 36.0983 27.6431 36.0013C27.5933 35.8925 27.5409 35.7856 27.486 35.6798C27.4369 35.5857 27.3868 35.4926 27.334 35.4011C27.2743 35.2978 27.2114 35.1968 27.1465 35.0964C27.0894 35.0082 27.0316 34.9207 26.9704 34.835C26.9012 34.7376 26.8283 34.6435 26.7544 34.5497C26.6895 34.4677 26.6244 34.386 26.5563 34.3069C26.4775 34.2161 26.3951 34.1286 26.312 34.0418C26.2402 33.9671 26.1692 33.8921 26.0945 33.8203C26.007 33.7361 25.9154 33.6566 25.8235 33.5768C25.7459 33.5094 25.669 33.4416 25.5884 33.3776C25.4921 33.301 25.3922 33.23 25.2918 33.1586C25.2087 33.0993 25.127 33.0389 25.0414 32.9828C24.9366 32.9147 24.8282 32.8525 24.7198 32.7898C24.6327 32.7393 24.547 32.6866 24.4573 32.6397C24.3445 32.5804 24.2273 32.528 24.1109 32.4746C24.0201 32.4328 23.9315 32.3885 23.8384 32.3508C23.7169 32.301 23.5909 32.2592 23.466 32.216C23.3738 32.1842 23.2837 32.1487 23.1899 32.1201C23.0563 32.0798 22.919 32.0491 22.7824 32.0165C22.6927 31.9952 22.6051 31.9692 22.5143 31.9513C22.3598 31.9205 22.202 31.9008 22.0442 31.8803C21.9673 31.87 21.8926 31.8546 21.8149 31.8469C21.578 31.8235 21.3382 31.811 21.0954 31.811C20.8526 31.811 20.6128 31.8239 20.3758 31.8469C20.2971 31.8546 20.2213 31.8704 20.1437 31.8806C19.9869 31.9011 19.8302 31.9205 19.6771 31.9513C19.5849 31.9696 19.4959 31.996 19.4047 32.0179C19.2696 32.0502 19.1337 32.0806 19.0015 32.1205C18.906 32.1494 18.8141 32.1853 18.7203 32.2179C18.5969 32.2607 18.4731 32.3017 18.353 32.3508C18.2586 32.3896 18.1674 32.4347 18.0751 32.4775C17.9609 32.5302 17.8459 32.5811 17.7349 32.6397C17.6434 32.6877 17.5555 32.7415 17.4661 32.7935C17.36 32.855 17.2538 32.9158 17.1512 32.9828C17.0633 33.04 16.9795 33.1018 16.8945 33.163C16.7964 33.2329 16.6986 33.3025 16.6045 33.3776C16.5221 33.4431 16.4434 33.5123 16.3639 33.5812C16.2739 33.6592 16.1841 33.7376 16.0981 33.8199C16.0219 33.8932 15.9494 33.9693 15.8762 34.0459C15.7942 34.1316 15.7132 34.2176 15.6356 34.307C15.566 34.3872 15.5001 34.4699 15.4346 34.553C15.3613 34.6457 15.2896 34.7387 15.2211 34.8346C15.1592 34.9214 15.1006 35.01 15.0424 35.0998C14.9783 35.1986 14.9164 35.2982 14.8571 35.4004C14.8033 35.493 14.7524 35.5875 14.7029 35.6827C14.6484 35.7874 14.5968 35.8933 14.5473 36.0013C14.5026 36.0991 14.4602 36.1976 14.4202 36.2975C14.3756 36.4081 14.3346 36.5202 14.2954 36.6333C14.2602 36.7355 14.2269 36.838 14.1965 36.9424C14.1625 37.0581 14.1328 37.1753 14.105 37.2932C14.0797 37.399 14.0559 37.5052 14.0358 37.6129C14.0131 37.7333 13.9955 37.8553 13.979 37.9779C13.9644 38.0867 13.9504 38.1954 13.9409 38.306C13.9373 38.3507 13.9285 38.3943 13.9255 38.4393H9.26222V33.8723H14.5675V32.9393H9.26222V31.6701H12.9094V30.737H9.26222V29.4679H11.5468V28.5348H9.26222V27.4543L32.9084 27.4532Z" fill="currentColor"/>
</svg>
